<?xml version="1.0" encoding="iso-8859-1"?>
<!-- Generator: Adobe Illustrator 19.0.0, SVG Export Plug-In . SVG Version: 6.00 Build 0)  -->
<svg version="1.1" id="Capa_1" xmlns="http://www.w3.org/2000/svg" xmlns:xlink="http://www.w3.org/1999/xlink" x="0px" y="0px"
	 viewBox="0 0 512 512" style="enable-background:new 0 0 512 512;" xml:space="preserve">
<g>
	<path style="fill:#e6e6e6;" d="M379.586,344.276h-44.138V203.034c0-24.373,19.765-44.138,44.138-44.138h88.276
		c24.373,0,44.138,19.765,44.138,44.138v141.241h-44.138V512h-88.276V344.276z"/>
	<path style="fill:#e6e6e6;" d="M211.862,291.31h-44.138V150.069c0-24.373,19.765-44.138,44.138-44.138h88.276
		c24.373,0,44.138,19.765,44.138,44.138V291.31h-44.138V512h-88.276V291.31z"/>
</g>
<polygon style="fill:#656466;" points="220.69,105.931 291.31,105.931 256,150.069 "/>
<g>
	<rect x="167.724" y="256" style="fill:#ede76f;" width="44.138" height="35.31"/>
	<rect x="300.138" y="256" style="fill:#ede76f;" width="44.138" height="35.31"/>
	<path style="fill:#ede76f;" d="M238.345,0h35.31c9.754,0,17.655,7.901,17.655,17.655v35.31c0,9.754-7.901,17.655-17.655,17.655
		h-35.31c-9.754,0-17.655-7.901-17.655-17.655v-35.31C220.69,7.901,228.59,0,238.345,0z"/>
	<path style="fill:#ede76f;" d="M70.621,52.966h35.31c9.754,0,17.655,7.901,17.655,17.655v35.31c0,9.754-7.901,17.655-17.655,17.655
		h-35.31c-9.754,0-17.655-7.901-17.655-17.655v-35.31C52.966,60.866,60.866,52.966,70.621,52.966z"/>
	<path style="fill:#ede76f;" d="M406.069,52.966h35.31c9.754,0,17.655,7.901,17.655,17.655v35.31
		c0,9.754-7.901,17.655-17.655,17.655h-35.31c-9.754,0-17.655-7.901-17.655-17.655v-35.31
		C388.414,60.866,396.314,52.966,406.069,52.966z"/>
</g>
<polygon style="fill:#656466;" points="388.414,158.897 459.034,158.897 423.724,203.034 "/>
<path style="fill:#e6e6e6;" d="M44.138,344.276H0V203.034c0-24.373,19.765-44.138,44.138-44.138h88.276
	c24.373,0,44.138,19.765,44.138,44.138v141.241h-44.138V512H44.138V344.276z"/>
<polygon style="fill:#656466;" points="52.966,158.897 123.586,158.897 88.276,203.034 "/>
<g>
	<rect x="247.172" y="176.552" style="fill:#656466;" width="17.655" height="17.655"/>
	<rect x="247.172" y="211.862" style="fill:#656466;" width="17.655" height="17.655"/>
	<rect x="247.172" y="247.172" style="fill:#656466;" width="17.655" height="17.655"/>
	<rect x="247.172" y="282.483" style="fill:#656466;" width="17.655" height="229.517"/>
	<rect x="79.448" y="229.517" style="fill:#656466;" width="17.655" height="17.655"/>
	<rect x="79.448" y="264.828" style="fill:#656466;" width="17.655" height="17.655"/>
	<rect x="79.448" y="335.448" style="fill:#656466;" width="17.655" height="176.552"/>
	<rect x="414.897" y="229.517" style="fill:#656466;" width="17.655" height="17.655"/>
	<rect x="414.897" y="264.828" style="fill:#656466;" width="17.655" height="17.655"/>
	<rect x="414.897" y="335.448" style="fill:#656466;" width="17.655" height="176.552"/>
</g>
<g>
</g>
<g>
</g>
<g>
</g>
<g>
</g>
<g>
</g>
<g>
</g>
<g>
</g>
<g>
</g>
<g>
</g>
<g>
</g>
<g>
</g>
<g>
</g>
<g>
</g>
<g>
</g>
<g>
</g>
</svg>
