<?xml version="1.0" encoding="iso-8859-1"?>
<!-- Generator: Adobe Illustrator 19.0.0, SVG Export Plug-In . SVG Version: 6.00 Build 0)  -->
<svg version="1.1" id="Capa_1" xmlns="http://www.w3.org/2000/svg" xmlns:xlink="http://www.w3.org/1999/xlink" x="0px" y="0px"
	 viewBox="0 0 511.994 511.994" style="enable-background:new 0 0 511.994 511.994;" xml:space="preserve">
<path style="fill:#E6E6E6;" d="M511.971,141.274v370.72l0,0H26.504c-14.626,0-26.48-11.854-26.48-26.48v-344.24l0,0H511.971
	L511.971,141.274z"/>
<path style="fill:#E6E6E6;" d="M0.024,141.689h97.914c0,204.284,165.606,369.891,369.891,369.891h0.009H26.504
	c-14.626,0-26.48-11.854-26.48-26.48L0.024,141.689L0.024,141.689z"/>
<path style="fill:#656466;" d="M26.504,88.314h17.653v370.72H26.504c-14.626,0-26.48,11.854-26.48,26.48l0,0v-370.72
	C0.024,100.168,11.878,88.314,26.504,88.314z"/>
<rect x="379.544" y="229.576" style="fill:#f7f063;" width="35.307" height="176.533"/>
<rect x="379.544" y="194.27" style="fill:#656466;" width="70.613" height="35.307"/>
<path style="fill:#f7f063;" d="M450.184,194.234v-25.05c44.681-19.498,65.088-71.523,45.59-116.203s-71.523-65.088-116.203-45.59
	s-65.088,71.523-45.59,116.203c8.906,20.398,25.191,36.684,45.59,45.59v25.05H450.184z"/>
<path style="opacity:0.3;fill:#f7f063;enable-background:new    ;" d="M361.917,80.97c0.009-35.13,20.84-66.906,53.057-80.923
	h-0.097c-48.75,0.035-88.24,39.579-88.205,88.329c0.026,35.051,20.787,66.765,52.898,80.808v25.05h70.613v-24.997
	C401.434,169.237,361.917,129.72,361.917,80.97z"/>
<polygon style="fill:#d8d06c;" points="379.571,406.074 414.877,459.034 450.184,406.074 "/>
<g>
	<rect x="414.851" y="229.576" style="fill:#f7f063;" width="35.307" height="176.533"/>
	<rect x="97.091" y="194.27" style="fill:#656466;" width="44.133" height="44.133"/>
	<rect x="185.357" y="194.27" style="fill:#656466;" width="44.133" height="44.133"/>
	<rect x="273.624" y="194.27" style="fill:#656466;" width="44.133" height="44.133"/>
	<rect x="97.091" y="273.71" style="fill:#656466;" width="44.133" height="44.133"/>
	<rect x="185.357" y="273.71" style="fill:#656466;" width="44.133" height="44.133"/>
	<rect x="273.624" y="273.71" style="fill:#656466;" width="44.133" height="44.133"/>
</g>
<path style="fill:#f7f063;" d="M414.877,0.047c-17.115-0.009-33.859,4.978-48.167,14.361c45.678-16.903,96.405,6.417,113.317,52.095
	c14.308,38.661-0.071,82.07-34.636,104.543c45.722-16.824,69.148-67.533,52.316-113.255C484.935,23.085,451.861,0.021,414.877,0.047
	z"/>
<g>
	<rect x="406.024" y="106.003" style="fill:#fff;" width="17.653" height="88.267"/>
	<path style="fill:#fff;" d="M414.877,123.621c-2.339,0-4.59-0.927-6.24-2.586L373.33,85.728l12.481-12.481l29.066,29.066
		l29.066-29.066l12.481,12.481l-35.307,35.307C419.458,122.685,417.216,123.621,414.877,123.621z"/>
	<rect x="123.571" y="344.323" style="fill:#656466;" width="17.653" height="17.653"/>
	<rect x="158.877" y="344.323" style="fill:#656466;" width="167.707" height="17.653"/>
	<rect x="88.264" y="379.63" style="fill:#656466;" width="238.32" height="17.653"/>
	<rect x="88.264" y="414.936" style="fill:#656466;" width="238.32" height="17.653"/>
	<rect x="88.264" y="450.243" style="fill:#656466;" width="194.187" height="17.653"/>
</g>
<g>
</g>
<g>
</g>
<g>
</g>
<g>
</g>
<g>
</g>
<g>
</g>
<g>
</g>
<g>
</g>
<g>
</g>
<g>
</g>
<g>
</g>
<g>
</g>
<g>
</g>
<g>
</g>
<g>
</g>
</svg>
