<svg viewBox="0 0 512 512" xmlns="http://www.w3.org/2000/svg" xmlns:xlink="http://www.w3.org/1999/xlink" style="border:2px solid #e9e55c; border-radius:50%;"><path d="m512 256c0 141.386719-114.613281 256-256 256s-256-114.613281-256-256 114.613281-256 256-256 256 114.613281 256 256zm0 0" fill="url(#a)"/><path d="m390.542969 79h-269.085938c-23.410156 0-42.457031 19.046875-42.457031 42.457031v269.085938c0 23.410156 19.046875 42.457031 42.457031 42.457031h269.085938c23.410156 0 42.457031-19.046875 42.457031-42.457031v-269.085938c0-23.410156-19.046875-42.457031-42.457031-42.457031zm12.457031 311.542969c0 6.867187-5.589844 12.457031-12.457031 12.457031h-78.253907v-110.617188h42.414063l7.007813-42.5625h-49.421876v-29.515624c0-11.652344 8.941407-20.59375 20.59375-20.59375h28.140626v-42.558594h-28.140626c-34.957031 0-63.140624 28.316406-63.140624 63.273437v29.394531h-41.199219v42.558594h41.199219v110.621094h-148.285157c-6.867187 0-12.457031-5.589844-12.457031-12.457031v-269.085938c0-6.867187 5.589844-12.457031 12.457031-12.457031h269.085938c6.867187 0 12.457031 5.589844 12.457031 12.457031zm0 0" style="fill:#e9e55c;"/></svg>