<svg xmlns="http://www.w3.org/2000/svg" width="104" height="110" viewBox="0 0 104 110"><g><g><path fill="#f0f0f0" d="M6.276 0c3.466 0 6.276 2.826 6.276 6.311 0 3.486-2.81 6.312-6.276 6.312C2.81 12.623 0 9.797 0 6.311 0 2.826 2.81.001 6.276.001zm13.448 8.114V4.508H104v3.606zM6.276 19.836c3.466 0 6.276 2.826 6.276 6.311 0 3.486-2.81 6.312-6.276 6.312C2.81 32.46 0 29.633 0 26.147c0-3.485 2.81-6.311 6.276-6.311zm13.448 8.115v-3.606H104v3.606zM6.276 38.77c3.466 0 6.276 2.825 6.276 6.31 0 3.487-2.81 6.312-6.276 6.312C2.81 51.393 0 48.568 0 45.082c0-3.486 2.81-6.312 6.276-6.312zm13.448 8.114v-3.606H104v3.606zM6.276 58.606c3.466 0 6.276 2.826 6.276 6.311 0 3.487-2.81 6.312-6.276 6.312C2.81 71.23 0 68.404 0 64.918c0-3.485 2.81-6.31 6.276-6.31zm13.448 8.115v-3.607H104v3.607zM6.276 77.541c3.466 0 6.276 2.826 6.276 6.311 0 3.486-2.81 6.312-6.276 6.312C2.81 90.164 0 87.338 0 83.852c0-3.485 2.81-6.311 6.276-6.311zm13.448 8.115v-3.607H104v3.607zM6.276 97.377c3.466 0 6.276 2.825 6.276 6.312 0 3.485-2.81 6.31-6.276 6.31C2.81 110 0 107.175 0 103.69c0-3.487 2.81-6.312 6.276-6.312zm13.448 8.115v-3.607H104v3.607z"/></g></g></svg>