<?xml version="1.0" encoding="iso-8859-1"?>
<!-- Generator: Adobe Illustrator 19.0.0, SVG Export Plug-In . SVG Version: 6.00 Build 0)  -->
<svg version="1.1" id="Capa_1" xmlns="http://www.w3.org/2000/svg" xmlns:xlink="http://www.w3.org/1999/xlink" x="0px" y="0px"
	 viewBox="0 0 464 464" style="enable-background:new 0 0 464 464;" xml:space="preserve">
<path style="fill:#E6E6E6;" d="M48,464H24c-13.255,0-24-10.745-24-24l0,0V24C0,10.745,10.745,0,24,0h416c13.255,0,24,10.745,24,24
	v416c0,13.255-10.745,24-24,24l0,0H48z"/>
<path style="fill:#656466;" d="M24,0h416c13.255,0,24,10.745,24,24v40l0,0H0l0,0V24C0,10.745,10.745,0,24,0z"/>
<path style="fill:#DA4836;" d="M24,24h16v16H24V24z"/>
<path style="fill:#F8CF26;" d="M56,24h16v16H56V24z"/>
<path style="fill:#3DBF50;" d="M88,24h16v16H88V24z"/>
<path style="fill:#656466;" d="M364.208,262.224l-25.256,10.632l-10.768,25.976l10.36,25.432l-26.064,26.072l-25.44-10.4
	l-25.976,10.76L250.4,376h-36.8l-10.632-25.264L176.96,340l-25.44,10.4l-26.064-26.072l10.4-25.432l-10.768-25.976l-25.256-10.632
	v-36.936l25.256-10.632l10.768-25.976l-10.4-25.432l26.064-26.064l25.44,10.352l25.976-10.76l10.664-25.264h36.8l10.632,25.264
	l26.008,10.76l25.44-10.352l26.064,26.064l-10.36,25.432l10.768,25.976l25.256,10.632L364.208,262.224z"/>
<circle style="fill:#f9f262;" cx="232" cy="243.792" r="72"/>
<g>
	<path style="fill:#999999;" d="M32,384h16v16H32V384z"/>
	<path style="fill:#999999;" d="M64,384h72v16H64V384z"/>
	<path style="fill:#999999;" d="M32,416h72v16H32V416z"/>
	<path style="fill:#999999;" d="M328,384h16v16h-16V384z"/>
	<path style="fill:#999999;" d="M360,384h72v16h-72V384z"/>
	<path style="fill:#999999;" d="M328,416h72v16h-72V416z"/>
	<path style="fill:#999999;" d="M224,235.792h16v16h-16V235.792z"/>
	<path style="fill:#999999;" d="M192,235.792h16v16h-16V235.792z"/>
	<path style="fill:#999999;" d="M256,235.792h16v16h-16V235.792z"/>
</g>
<g>
</g>
<g>
</g>
<g>
</g>
<g>
</g>
<g>
</g>
<g>
</g>
<g>
</g>
<g>
</g>
<g>
</g>
<g>
</g>
<g>
</g>
<g>
</g>
<g>
</g>
<g>
</g>
<g>
</g>
</svg>
