<?xml version="1.0"?>
<svg xmlns="http://www.w3.org/2000/svg" id="Flat" viewBox="0 0 64 64" width="512" height="512"><rect x="15" y="3" width="34" height="58" rx="2" ry="2" style="fill:#656466"/><path d="M49,5V55H15V5a2,2,0,0,1,2-2H47A2,2,0,0,1,49,5Z" style="fill:#f7f062"/><circle cx="32" cy="58" r="2" style="fill:#a2a1a2"/><rect x="10" y="31" width="20" height="20" rx="4" ry="4" style="fill:#656466"/><circle cx="16" cy="45" r="2" style="fill:#fafafa"/><path d="M22,46a1,1,0,0,1-1-1,5.006,5.006,0,0,0-5-5,1,1,0,0,1,0-2,7.008,7.008,0,0,1,7,7A1,1,0,0,1,22,46Z" style="fill:#fafafa"/><path d="M26,46a1,1,0,0,1-1-1,9.01,9.01,0,0,0-9-9,1,1,0,0,1,0-2A11.013,11.013,0,0,1,27,45,1,1,0,0,1,26,46Z" style="fill:#fafafa"/><rect x="34" y="7" width="20" height="20" rx="4" ry="4" style="fill:#656466"/><rect x="10" y="7" width="20" height="20" rx="4" ry="4" style="fill:#c5c5c5"/><rect x="34" y="31" width="20" height="20" rx="4" ry="4" style="fill:#c5c5c5"/><path d="M44,34a7,7,0,1,0,7,7A7.008,7.008,0,0,0,44,34Zm4.9,6H47.12a10.336,10.336,0,0,0-.981-3.5A5.008,5.008,0,0,1,48.9,40Zm-6.005,0A8.346,8.346,0,0,1,44,36.737,8.346,8.346,0,0,1,45.106,40Zm2.212,2A8.346,8.346,0,0,1,44,45.263,8.346,8.346,0,0,1,42.894,42Zm-3.245-5.5A10.336,10.336,0,0,0,40.88,40H39.1A5.008,5.008,0,0,1,41.861,36.5ZM39.1,42H40.88a10.336,10.336,0,0,0,.981,3.5A5.008,5.008,0,0,1,39.1,42Zm7.038,3.5A10.336,10.336,0,0,0,47.12,42H48.9A5.008,5.008,0,0,1,46.139,45.5Z" style="fill:#fafafa"/><path d="M44,11a5.992,5.992,0,0,0-4.8,9.593L38,23l3.281-.656A6,6,0,1,0,44,11Z" style="fill:#fafafa"/><path d="M44,18a1,1,0,0,1-.38-.08,1.155,1.155,0,0,1-.33-.21A.99.99,0,0,1,43,17a1.05,1.05,0,0,1,.29-.71,1,1,0,0,1,1.09-.21.933.933,0,0,1,.33.21A1.05,1.05,0,0,1,45,17a.99.99,0,0,1-.29.71,1.155,1.155,0,0,1-.33.21A1,1,0,0,1,44,18Z" style="fill:#656466"/><path d="M26.275,12.038l-7-2A1,1,0,0,0,18,11v3.3a3.943,3.943,0,0,0-1.5-.3A3.283,3.283,0,0,0,13,17a3.283,3.283,0,0,0,3.5,3A3.283,3.283,0,0,0,20,17V12.326l5,1.428V18.3a3.943,3.943,0,0,0-1.5-.3A3.283,3.283,0,0,0,20,21a3.283,3.283,0,0,0,3.5,3A3.283,3.283,0,0,0,27,21V13A1,1,0,0,0,26.275,12.038ZM16.5,18c-.8,0-1.5-.468-1.5-1s.7-1,1.5-1,1.5.468,1.5,1S17.3,18,16.5,18Zm7,4c-.8,0-1.5-.468-1.5-1s.7-1,1.5-1,1.5.468,1.5,1S24.3,22,23.5,22Z" style="fill:#fafafa"/><path d="M41,18a.99.99,0,0,1-1-1,1,1,0,1,1,2,0,1.007,1.007,0,0,1-.29.71A.994.994,0,0,1,41,18Z" style="fill:#656466"/><path d="M47,18a1,1,0,0,1-.38-.08,1.155,1.155,0,0,1-.33-.21A.99.99,0,0,1,46,17a1.05,1.05,0,0,1,.29-.71,1.155,1.155,0,0,1,.33-.21,1,1,0,0,1,1.09.21A1.05,1.05,0,0,1,48,17a.99.99,0,0,1-1,1Z" style="fill:#656466"/></svg>
