<svg height="464pt" viewBox="0 0 464 464" width="464pt" xmlns="http://www.w3.org/2000/svg"><path d="m40 240v32c0 22.089844 17.910156 40 40 40s40-17.910156 40-40v-32zm0 0" fill="#c0c0c0"/><path d="m424 240v36c0 19.882812-16.117188 36-36 36s-36-16.117188-36-36v-36zm0 0" fill="#f9f592"/><path d="m0 464v-72c0-44.183594 35.816406-80 80-80s80 35.816406 80 80v72zm0 0" fill="#656466"/><path d="m88 184v-128c0-13.253906 10.746094-24 24-24h112c13.253906 0 24 10.746094 24 24v80c0 13.253906-10.746094 24-24 24h-112c-13.253906 0-24 10.746094-24 24zm0 0" fill="#656466"/><path d="m376 152v-128c0-13.253906-10.746094-24-24-24h-112c-13.253906 0-24 10.746094-24 24v80c0 13.253906 10.746094 24 24 24h112c13.253906 0 24 10.746094 24 24zm0 0" fill="#f7f062"/><path d="m144 88h16v16h-16zm0 0" fill="#e9e8e9"/><path d="m176 88h16v16h-16zm0 0" fill="#e9e8e9"/><path d="m272 56h16v16h-16zm0 0" fill="#464439"/><path d="m304 56h16v16h-16zm0 0" fill="#464439"/><path d="m304 464v-72c0-44.183594 35.816406-80 80-80s80 35.816406 80 80v72zm0 0" fill="#f7f062"/><path d="m112 88h16v16h-16zm0 0" fill="#e9e8e9"/><path d="m336 56h16v16h-16zm0 0" fill="#464439"/><path d="m40 256h72c13.253906 0 24-10.746094 24-24v-40c0 13.253906-10.746094 24-24 24h-48c-13.253906 0-24 10.746094-24 24zm0 0" fill="#656466"/><path d="m424 256h-72c-13.253906 0-24-10.746094-24-24v-40c0 13.253906 10.746094 24 24 24h48c13.253906 0 24 10.746094 24 24zm0 0" fill="#f7f062"/></svg>