<?xml version="1.0"?>
<svg xmlns="http://www.w3.org/2000/svg" id="Layer_1" data-name="Layer 1" viewBox="0 0 512 512" width="512" height="512"><title>Budget report</title><path d="M387.46,262.53a117.239,117.239,0,1,1-130.81,66.95v-.01a117.5,117.5,0,0,1,130.81-66.95ZM457.03,377.4a93.31,93.31,0,1,0-93.31,93.31A93.315,93.315,0,0,0,457.03,377.4Z" style="fill:#656466"/><circle cx="363.72" cy="377.4" r="93.31" style="fill:#e6e6e6"/><path d="M387.46,120.14V262.52a118.233,118.233,0,0,0-49.46.44V120.14Z" style="fill:#656466"/><path d="M335.21,49.93a26.825,26.825,0,0,1-.4-4.69,27.952,27.952,0,1,1,.4,4.69Z" style="fill:#ede668"/><path d="M286.19,183.48V289.41a117.664,117.664,0,0,0-29.54,40.06v.01H236.73v-146Z" style="fill:#656466"/><path d="M261.46,80.91a27.925,27.925,0,1,1-27.92,27.92A27.922,27.922,0,0,1,261.46,80.91Z" style="fill:#ede668"/><rect x="135.47" y="248.51" width="49.45" height="80.96" style="fill:#656466"/><path d="M134.6,162.11a27.923,27.923,0,1,1-2.33,11.17A27.9,27.9,0,0,1,134.6,162.11Z" style="fill:#ede668"/><rect x="34.2" y="191.27" width="49.45" height="138.2" style="fill:#656466"/><path d="M58.93,87.84A27.93,27.93,0,1,1,31,115.77,27.928,27.928,0,0,1,58.93,87.84Z" style="fill:#ede668"/><path d="M58.93,149.7A33.888,33.888,0,0,0,86.3,135.784l41.142,28.652a33.933,33.933,0,1,0,66.352,4.175l43.138-36.385a33.9,33.9,0,0,0,56.186-35.584L332.458,60.59a33.958,33.958,0,1,0-3.648-15.35c0,.789.034,1.569.086,2.34l-42.17,38.64a33.911,33.911,0,0,0-56.46,35.928L189.621,156.43a33.9,33.9,0,0,0-56.954-2.976L91.6,124.857A33.921,33.921,0,1,0,58.93,149.7ZM362.73,23.32a21.925,21.925,0,1,1-21.612,25.563,20.9,20.9,0,0,1-.308-3.643A21.945,21.945,0,0,1,362.73,23.32ZM261.46,86.91a21.925,21.925,0,1,1-21.92,21.92A21.95,21.95,0,0,1,261.46,86.91ZM160.19,151.35a21.925,21.925,0,1,1-21.92,21.93,21.926,21.926,0,0,1,21.92-21.93ZM58.93,93.84A21.93,21.93,0,1,1,37,115.77,21.95,21.95,0,0,1,58.93,93.84Z" style="fill:#ede668"/><path d="M393,120.14c0-3.313-2.227-6.14-5.54-6.14H338a6.122,6.122,0,0,0-6,6.14V258.263a123.713,123.713,0,0,0-40,18.747V183.48c0-3.313-2.5-6.48-5.81-6.48H236.73c-3.313,0-5.73,3.167-5.73,6.48v146a5.383,5.383,0,0,0,5.73,5.52h11.031a126.367,126.367,0,0,0-7.321,42.16c0,67.977,55.3,123.4,123.28,123.4s123.05-55.243,123.05-123.22A123.269,123.269,0,0,0,393,257.745ZM381,126V255.4a122.359,122.359,0,0,0-37,.31V126ZM243,189h37v97.751A137.85,137.85,0,0,0,252.839,323H243ZM475,377.4a111.28,111.28,0,1,1-212.875-45.465c.028-.064.057-.128.083-.193a112.4,112.4,0,0,1,27.952-37.833,111.141,111.141,0,0,1,49.154-25.095,112.771,112.771,0,0,1,46.619-.482c.105.028.212.053.319.075C437.676,278.973,475,324.812,475,377.4Z" style="fill:#e6e6e6"/><path d="M190,249a6,6,0,0,0-6-6H135a6,6,0,0,0-6,6v81a6,6,0,0,0,6,6h49a6,6,0,0,0,6-6Zm-49,6h38v68H141Z" style="fill:#e6e6e6"/><path d="M89,191a6,6,0,0,0-6-6H34a6,6,0,0,0-6,6V329a6,6,0,0,0,6,6H83a6,6,0,0,0,6-6ZM78,323H40V197H78Z" style="fill:#e6e6e6"/><path d="M264.41,377.4a99.31,99.31,0,1,0,99.31-99.31A99.422,99.422,0,0,0,264.41,377.4Zm186.62,0a87.31,87.31,0,1,1-87.31-87.31A87.409,87.409,0,0,1,451.03,377.4Z" style="fill:#e6e6e6"/><path d="M358,311.56v9.4a32.583,32.583,0,0,0-27.16,32.464,33,33,0,0,0,32.95,33.03,21.018,21.018,0,0,1,.049,42.035c-.034,0-.076,0-.111,0s-.071,0-.105,0A21.043,21.043,0,0,1,342.7,407.47a6,6,0,0,0-6-6,5.883,5.883,0,0,0-5.86,6A32.583,32.583,0,0,0,358,439.934V450.57a6,6,0,0,0,12,0V439.934a33.031,33.031,0,0,0-6.21-65.484,21.025,21.025,0,1,1,20.959-21.03,6,6,0,0,0,6,6,6.12,6.12,0,0,0,6.138-6A33.288,33.288,0,0,0,370,320.956v-9.4a6,6,0,1,0-12,0Z" style="fill:#e6e6e6"/></svg>
